<svg width="51" height="40" viewBox="0 0 51 40" fill="none" xmlns="http://www.w3.org/2000/svg">
<path d="M19.4875 15.5797C19.4949 15.5193 19.5144 15.4605 19.5446 15.4064C19.5748 15.3523 19.6153 15.3042 19.6637 15.2647C19.712 15.2252 19.7674 15.1951 19.8266 15.1761C19.8857 15.1572 19.9475 15.1497 20.0085 15.1542L29.5203 15.8546C29.5812 15.8591 29.6401 15.8754 29.6935 15.9027C29.7469 15.9299 29.7939 15.9675 29.8317 16.0134C29.8695 16.0592 29.8974 16.1124 29.9138 16.1699C29.9302 16.2274 29.9348 16.288 29.9273 16.3484C29.9199 16.4087 29.9005 16.4676 29.8702 16.5217C29.84 16.5757 29.7996 16.6239 29.7512 16.6634C29.7028 16.7029 29.6475 16.733 29.5883 16.752C29.5291 16.7709 29.4673 16.7784 29.4064 16.7739L19.8946 16.0735C19.8337 16.069 19.7748 16.0527 19.7213 16.0255C19.6679 15.9982 19.6209 15.9606 19.5831 15.9148C19.5453 15.8689 19.5174 15.8157 19.501 15.7582C19.4846 15.7007 19.48 15.6401 19.4875 15.5797ZM19.4279 28.5809C19.3684 28.5986 19.3065 28.6047 19.2457 28.5989C19.1849 28.5931 19.1265 28.5755 19.0738 28.5471C19.021 28.5186 18.9749 28.4799 18.9382 28.4332C18.9015 28.3865 18.8748 28.3326 18.8597 28.2747L15.5941 15.7568L8.91244 15.2649C8.68241 16.1757 8.11606 16.984 7.32652 17.5281C6.53697 18.0721 5.58236 18.3121 4.65333 18.1999C3.7243 18.0878 2.88926 17.6318 2.31497 16.9231C1.74069 16.2143 1.46945 15.305 1.55542 14.3767C1.64139 13.4484 2.07825 12.5695 2.77874 11.9155C3.47923 11.2615 4.39178 10.8806 5.33414 10.8488C6.2765 10.817 7.17929 11.1367 7.8622 11.744C8.5451 12.3513 8.95786 13.2016 9.01802 14.1249C9.02277 14.1986 9.02456 14.2721 9.02491 14.3455L15.3473 14.811L13.7804 8.80492C13.7065 8.81734 13.6321 8.82837 13.5571 8.83659C12.6203 8.93805 11.696 8.68884 10.9688 8.1387C10.2416 7.58857 9.76501 6.77801 9.63421 5.86884C9.50342 4.95967 9.72801 4.0188 10.2632 3.23407C10.7983 2.44935 11.6046 1.87851 12.5212 1.63553C13.4377 1.39256 14.3969 1.49532 15.2074 1.9233C16.0179 2.35128 16.62 3.07299 16.8934 3.94434C17.1669 4.81569 17.0916 5.77256 16.6826 6.6239C16.2736 7.47525 15.561 8.15842 14.6871 8.53703L16.4181 15.1725L16.4186 15.1741L19.766 28.0055C19.7811 28.0634 19.7844 28.1242 19.7756 28.1844C19.7667 28.2447 19.746 28.3032 19.7146 28.3566C19.6832 28.4101 19.6418 28.4574 19.5926 28.4959C19.5434 28.5344 19.4874 28.5633 19.4279 28.5809ZM13.498 7.92045C13.6696 7.9015 13.8399 7.86727 14.0066 7.81819C14.0081 7.81773 14.0094 7.81692 14.0108 7.81648C14.0128 7.81588 14.0148 7.81589 14.0168 7.81533C14.7159 7.6064 15.3194 7.14358 15.7019 6.52296C16.0844 5.90234 16.2165 5.17162 16.0708 4.48255C15.9252 3.79347 15.5129 3.19899 14.9196 2.82256C14.3263 2.44612 13.5977 2.31665 12.8849 2.46104C12.1721 2.60543 11.53 3.01258 11.092 3.59794C10.6539 4.1833 10.4535 4.90189 10.5324 5.60449C10.6113 6.30708 10.9634 6.9397 11.5157 7.37096C12.0679 7.80223 12.7779 7.99903 13.498 7.92045ZM7.39009 16.2605C7.763 15.8281 7.9996 15.3006 8.06871 14.7476C8.06904 14.7447 8.06887 14.7419 8.06925 14.7389C8.0694 14.7377 8.06989 14.7366 8.07008 14.7354C8.09065 14.566 8.0956 14.3959 8.08486 14.2271C8.04984 13.6835 7.8514 13.1701 7.51465 12.7518C7.1779 12.3334 6.71795 12.0291 6.19298 11.8771C5.668 11.7251 5.10158 11.7323 4.56533 11.8979C4.02908 12.0634 3.54709 12.3799 3.18032 12.8072C2.81354 13.2345 2.57846 13.7534 2.50478 14.2985C2.43111 14.8435 2.52215 15.3901 2.76641 15.8691C3.01067 16.3481 3.39717 16.7381 3.87703 16.9897C4.35689 17.2413 4.90856 17.3432 5.46228 17.2825C5.83015 17.2432 6.18998 17.1326 6.52088 16.9572C6.85178 16.7818 7.14722 16.545 7.39009 16.2605Z" fill="#E1F6F4"/>
<path d="M43.3511 21.3448L50 24.1924V39L41.5378 35.5829L31.8666 39L23.4043 35.5829V20.7753L29.4488 23.0534M41.5378 35.5829V27.6095V35.5829ZM31.8666 39V27.6095V39ZM36.7022 32.4764C36.7022 32.4764 29.4488 27.04 29.4488 21.9143C29.4488 17.6429 33.0755 15.08 36.7022 15.08C40.3289 15.08 43.9556 17.6429 43.9556 21.9143C43.9556 27.04 36.7022 32.4764 36.7022 32.4764ZM37.9111 21.9143C37.9111 21.2852 37.3699 20.7753 36.7022 20.7753C36.0345 20.7753 35.4933 21.2852 35.4933 21.9143C35.4933 22.5434 36.0345 23.0534 36.7022 23.0534C37.3699 23.0534 37.9111 22.5434 37.9111 21.9143Z" fill="#E1F6F4"/>
<path d="M43.3511 21.3448L50 24.1924V39L41.5378 35.5829M41.5378 35.5829L31.8666 39M41.5378 35.5829V27.6095M31.8666 39L23.4043 35.5829V20.7753L29.4488 23.0534M31.8666 39V27.6095M36.7022 32.4764C36.7022 32.4764 29.4488 27.04 29.4488 21.9143C29.4488 17.6429 33.0755 15.08 36.7022 15.08C40.3289 15.08 43.9556 17.6429 43.9556 21.9143C43.9556 27.04 36.7022 32.4764 36.7022 32.4764ZM37.9111 21.9143C37.9111 21.2852 37.3699 20.7753 36.7022 20.7753C36.0345 20.7753 35.4933 21.2852 35.4933 21.9143C35.4933 22.5434 36.0345 23.0534 36.7022 23.0534C37.3699 23.0534 37.9111 22.5434 37.9111 21.9143Z" stroke="#6AC1B8"/>
</svg>
